<svg xmlns="http://www.w3.org/2000/svg" xmlns:xlink="http://www.w3.org/1999/xlink" width="500" zoomAndPan="magnify" viewBox="0 0 375 374.999991" height="500" preserveAspectRatio="xMidYMid meet" version="1.0"><defs><g/><clipPath id="87a029a503"><path d="M 126.46875 71.855469 L 248.71875 71.855469 L 248.71875 224.839844 L 126.46875 224.839844 Z M 126.46875 71.855469 " clip-rule="nonzero"/></clipPath></defs><g clip-path="url(#87a029a503)"><path fill="#fa7a2a" d="M 186.578125 71.882812 C 186.578125 71.882812 199.171875 98.785156 211.128906 107.4375 C 233.050781 116.671875 248.519531 138.378906 248.519531 163.757812 C 248.519531 197.480469 221.1875 224.75 187.433594 224.75 C 153.800781 224.75 126.46875 197.480469 126.46875 163.757812 C 126.46875 139.265625 140.839844 118.140625 161.660156 108.386719 C 161.660156 108.386719 162.820312 88.453125 183.152344 74.144531 C 174.070312 81.542969 172.238281 96.28125 173.460938 106.246094 L 173.460938 106.523438 L 173.523438 106.675781 L 173.523438 107.101562 L 173.582031 107.164062 L 173.582031 107.59375 L 173.644531 107.652344 L 173.644531 107.988281 L 173.707031 108.050781 L 173.707031 108.324219 L 173.765625 108.386719 L 173.765625 108.660156 L 173.828125 108.722656 L 173.828125 109 L 173.980469 109.425781 L 173.980469 109.546875 L 174.042969 109.761719 L 174.042969 109.886719 L 174.101562 109.945312 L 174.101562 110.160156 L 174.164062 110.222656 L 174.226562 110.527344 L 174.226562 110.710938 L 174.285156 110.773438 L 174.285156 110.894531 L 174.347656 110.957031 L 174.347656 111.136719 L 174.410156 111.292969 L 174.46875 111.351562 L 174.46875 111.414062 L 174.621094 111.839844 C 175.507812 114.472656 176.886719 117.621094 178.445312 121.167969 C 182.328125 130.246094 187.25 139.785156 185.933594 148.804688 C 184.527344 157.824219 173.398438 157.824219 168.417969 152.839844 C 163.433594 147.859375 168.203125 132.328125 168.628906 127.984375 C 169.148438 122.847656 165.632812 118.964844 160.863281 116.976562 C 161.964844 121.65625 157.625 130.03125 153.984375 136.054688 C 147.960938 145.960938 144.292969 150.273438 144.292969 163.328125 C 144.292969 183.996094 158.816406 201.238281 178.230469 205.398438 L 187.3125 220.289062 L 196.484375 205.398438 C 215.898438 201.210938 230.417969 183.996094 230.417969 163.328125 C 230.417969 156.296875 228.738281 149.691406 225.804688 143.820312 C 212.777344 119.453125 181.839844 102.089844 186.578125 71.882812 Z M 207.121094 163.96875 C 203.972656 163.96875 201.464844 166.539062 201.464844 169.625 C 201.464844 172.777344 203.972656 175.34375 207.121094 175.34375 C 210.273438 175.34375 212.839844 172.777344 212.839844 169.625 C 212.839844 166.539062 210.273438 163.96875 207.121094 163.96875 Z M 187.464844 163.96875 C 184.375 163.96875 181.808594 166.539062 181.808594 169.625 C 181.808594 172.777344 184.375 175.34375 187.464844 175.34375 C 190.613281 175.34375 193.179688 172.777344 193.179688 169.625 C 193.179688 166.539062 190.613281 163.96875 187.464844 163.96875 Z M 167.894531 163.96875 C 164.746094 163.96875 162.179688 166.539062 162.179688 169.625 C 162.179688 172.777344 164.746094 175.34375 167.894531 175.34375 C 170.984375 175.34375 173.550781 172.777344 173.550781 169.625 C 173.550781 166.539062 170.984375 163.96875 167.894531 163.96875 Z M 167.894531 163.96875 " fill-opacity="1" fill-rule="nonzero"/></g><g fill="#003366" fill-opacity="1"><g transform="translate(126.020893, 254.374085)"><g><path d="M 7.203125 -16.625 C 8.085938 -16.625 8.953125 -16.492188 9.796875 -16.234375 C 10.640625 -15.984375 11.269531 -15.734375 11.6875 -15.484375 L 12.28125 -15.078125 L 10.765625 -12.109375 C 10.648438 -12.191406 10.484375 -12.296875 10.265625 -12.421875 C 10.054688 -12.546875 9.660156 -12.710938 9.078125 -12.921875 C 8.503906 -13.140625 7.96875 -13.25 7.46875 -13.25 C 6.84375 -13.25 6.359375 -13.113281 6.015625 -12.84375 C 5.679688 -12.582031 5.515625 -12.226562 5.515625 -11.78125 C 5.515625 -11.550781 5.59375 -11.34375 5.75 -11.15625 C 5.914062 -10.96875 6.1875 -10.765625 6.5625 -10.546875 C 6.945312 -10.328125 7.285156 -10.148438 7.578125 -10.015625 C 7.867188 -9.878906 8.316406 -9.679688 8.921875 -9.421875 C 9.984375 -8.972656 10.882812 -8.363281 11.625 -7.59375 C 12.375 -6.820312 12.75 -5.945312 12.75 -4.96875 C 12.75 -4.03125 12.578125 -3.210938 12.234375 -2.515625 C 11.898438 -1.816406 11.441406 -1.269531 10.859375 -0.875 C 10.273438 -0.476562 9.625 -0.1875 8.90625 0 C 8.195312 0.195312 7.425781 0.296875 6.59375 0.296875 C 5.875 0.296875 5.171875 0.222656 4.484375 0.078125 C 3.804688 -0.0664062 3.234375 -0.25 2.765625 -0.46875 C 2.304688 -0.6875 1.890625 -0.898438 1.515625 -1.109375 C 1.148438 -1.316406 0.882812 -1.492188 0.71875 -1.640625 L 0.453125 -1.859375 L 2.3125 -4.984375 C 2.46875 -4.859375 2.6875 -4.691406 2.96875 -4.484375 C 3.25 -4.273438 3.738281 -4 4.4375 -3.65625 C 5.144531 -3.3125 5.769531 -3.140625 6.3125 -3.140625 C 7.882812 -3.140625 8.671875 -3.675781 8.671875 -4.75 C 8.671875 -4.976562 8.613281 -5.1875 8.5 -5.375 C 8.382812 -5.5625 8.1875 -5.75 7.90625 -5.9375 C 7.625 -6.132812 7.375 -6.289062 7.15625 -6.40625 C 6.9375 -6.519531 6.578125 -6.691406 6.078125 -6.921875 C 5.585938 -7.148438 5.222656 -7.320312 4.984375 -7.4375 C 3.992188 -7.925781 3.226562 -8.535156 2.6875 -9.265625 C 2.144531 -10.003906 1.875 -10.796875 1.875 -11.640625 C 1.875 -13.109375 2.414062 -14.304688 3.5 -15.234375 C 4.582031 -16.160156 5.816406 -16.625 7.203125 -16.625 Z M 7.203125 -16.625 "/></g></g></g><g fill="#003366" fill-opacity="1"><g transform="translate(145.292983, 254.374085)"><g><path d="M 4.90625 -16.328125 L 4.90625 0 L 1.1875 0 L 1.1875 -16.328125 Z M 4.90625 -16.328125 "/></g></g></g><g fill="#003366" fill-opacity="1"><g transform="translate(157.364679, 254.374085)"><g><path d="M 4.90625 -16.328125 L 4.90625 -3.265625 L 10.53125 -3.265625 L 10.53125 0 L 1.1875 0 L 1.1875 -16.328125 Z M 4.90625 -16.328125 "/></g></g></g><g fill="#003366" fill-opacity="1"><g transform="translate(174.520162, 254.374085)"><g><path d="M 9.484375 -16.328125 L 16.078125 0 L 12.078125 0 L 10.875 -3.265625 L 4.65625 -3.265625 L 3.4375 0 L -0.546875 0 L 6.03125 -16.328125 Z M 9.59375 -6.53125 L 7.78125 -11.28125 L 7.734375 -11.28125 L 5.921875 -6.53125 Z M 9.59375 -6.53125 "/></g></g></g><g fill="#003366" fill-opacity="1"><g transform="translate(196.007747, 254.374085)"><g><path d="M 1.1875 -16.328125 L 6.25 -16.328125 C 7.78125 -16.328125 9 -16 9.90625 -15.34375 C 10.820312 -14.695312 11.28125 -13.640625 11.28125 -12.171875 C 11.28125 -10.535156 10.601562 -9.367188 9.25 -8.671875 C 11.570312 -8.265625 12.734375 -6.890625 12.734375 -4.546875 C 12.734375 -3.179688 12.253906 -2.082031 11.296875 -1.25 C 10.347656 -0.414062 9.046875 0 7.390625 0 L 1.1875 0 Z M 4.90625 -9.9375 L 5.203125 -9.9375 C 6.035156 -9.9375 6.65625 -10.082031 7.0625 -10.375 C 7.476562 -10.664062 7.6875 -11.140625 7.6875 -11.796875 C 7.6875 -12.910156 6.859375 -13.46875 5.203125 -13.46875 L 4.90625 -13.46875 Z M 4.90625 -2.875 L 6.078125 -2.875 C 7.898438 -2.875 8.8125 -3.476562 8.8125 -4.6875 C 8.8125 -5.414062 8.582031 -5.9375 8.125 -6.25 C 7.664062 -6.570312 6.984375 -6.734375 6.078125 -6.734375 L 4.90625 -6.734375 Z M 4.90625 -2.875 "/></g></g></g><g fill="#003366" fill-opacity="1"><g transform="translate(215.161139, 254.374085)"><g><path d="M 10.53125 -16.328125 L 10.53125 -13.0625 L 4.90625 -13.0625 L 4.90625 -9.8125 L 10.296875 -9.8125 L 10.296875 -6.546875 L 4.90625 -6.546875 L 4.90625 -3.265625 L 10.53125 -3.265625 L 10.53125 0 L 1.1875 0 L 1.1875 -16.328125 Z M 10.53125 -16.328125 "/></g></g></g><g fill="#003366" fill-opacity="1"><g transform="translate(232.613344, 254.374085)"><g><path d="M 4.90625 -10.140625 L 4.90625 0 L 1.1875 0 L 1.1875 -16.328125 L 4.90625 -16.328125 L 11.40625 -6.203125 L 11.4375 -6.203125 L 11.4375 -16.328125 L 15.171875 -16.328125 L 15.171875 0 L 11.4375 0 L 4.953125 -10.140625 Z M 4.90625 -10.140625 "/></g></g></g></svg>